<svg xmlns="http://www.w3.org/2000/svg" xmlns:svg="http://www.w3.org/2000/svg" id="svg2" width="470" height="100" version="1.1"><metadata id="metadata12"/><path id="path4" d="M 20,20 V 40 H 30 V 60 H 20 V 80 H 40 V 70 H 60 V 80 H 80 V 60 H 70 V 40 H 80 V 20 H 60 V 30 H 40 V 20 H 20 z M 40,40 H 60 V 60 H 40 V 40 z" overflow="visible" style="color:#000;fill:#42a5f5;stroke:none;overflow:visible"><title id="title6">logogram</title></path><g id="g3006" transform="translate(-130,-50)" style="fill:#fff"><path id="rect2989-7" d="m 220,70 0,20 0,10 0,30 10,0 0,-30 20,0 0,30 10,0 0,-30 0,-10 -30,0 0,-20 -10,0 z" style="fill:#fff;fill-opacity:1;stroke:none"/><path id="rect2989-1-8-9" d="m 270,90 0,10 30,0 0,5 -30,0 0,10 0,15 10,0 30,0 0,-10 0,-20 0,-10 -40,0 z m 10,25 20,0 0,5 -20,0 0,-5 z" style="fill:#fff;fill-opacity:1;stroke:none"/><path id="rect2989-1-8-55-7" d="m 320,90 0,10 20,0 0,10 10,0 0,-10 10,0 0,-10 -40,0 z m 20,20 -10,0 0,10 -10,0 0,10 40,0 0,-10 -20,0 0,-10 z" style="fill:#fff;fill-opacity:1;stroke:none"/><path id="rect2989-1-8-2-2" d="m 370,90 0,10 0,5 0,10 0,5 0,10 40,0 0,-10 -30,0 0,-5 30,0 0,-10 0,-15 -30,0 -10,0 z m 10,10 20,0 0,5 -20,0 0,-5 z" style="fill:#fff;fill-opacity:1;stroke:none"/><path id="rect2989-85-9" d="m 420,90 0,10 0,20 0,10 10,0 30,0 0,-10 0,-20 0,-10 -40,0 z m 10,10 20,0 0,20 -20,0 0,-20 z" style="fill:#fff;fill-opacity:1;stroke:none"/><path id="rect2989-1-8-20-9" d="m 470,90 0,10 0,30 10,0 0,-30 30,0 0,-10 -30,0 -10,0 z" style="fill:#fff;fill-opacity:1;stroke:none"/><path id="rect4129-2" d="m 520,70 0,10 10,0 0,-10 -10,0 z m 0,20 0,40 10,0 0,-40 -10,0 z" style="fill:#fff;fill-opacity:1;stroke:none"/><path id="rect2989-2-5" d="m 570,70 0,20 -30,0 0,10 0,20 0,10 10,0 30,0 0,-10 0,-50 -10,0 z m -20,30 20,0 0,20 -20,0 0,-20 z" style="fill:#fff;fill-opacity:1;stroke:none"/></g></svg>