<svg xmlns="http://www.w3.org/2000/svg" xmlns:svg="http://www.w3.org/2000/svg" id="svg2" width="100" height="100" version="1.1"><metadata id="metadata7"/><g id="layer2" transform="translate(0,-900)" style="display:inline"><path id="path3202-8" d="m 0,899.99999 100,0 0,100 -100,0 z" style="color:#000;fill:#fff;fill-opacity:1;fill-rule:nonzero;stroke:none;stroke-width:1px;marker:none;visibility:visible;display:inline;overflow:visible;enable-background:accumulate"/><path style="color:#000;fill:#000;fill-opacity:1;fill-rule:nonzero;stroke:none;stroke-width:1px;marker:none;visibility:visible;display:inline;overflow:visible;enable-background:accumulate" id="path4023-4" d="m 20,919.99999 0,20 10,0 0,20 -10,0 0,20 20,0 0,-10 20,0 0,10 20,0 0,-20 -10,0 0,-20 10,0 0,-20 -20,0 0,10 -20,0 0,-10 -20,0 z m 20,20 20,0 0,20 -20,0 0,-20 z"/></g></svg>