<svg xmlns="http://www.w3.org/2000/svg" xmlns:svg="http://www.w3.org/2000/svg" id="svg2" width="470" height="100" version="1.1"><metadata id="metadata12"/><g id="g3016" transform="translate(-130,-50)" style="fill:#000"><path style="color:#000;fill:#000;stroke:none;overflow:visible" id="path4" d="m 150,70 v 20 h 10 v 20 h -10 v 20 h 20 v -10 h 20 v 10 h 20 V 110 H 200 V 90 h 10 V 70 H 190 V 80 H 170 V 70 h -20 z m 20,20 h 20 v 20 H 170 V 90 z" overflow="visible"><title id="title6">logogram</title></path><g style="fill:#000" id="g3006"><path style="fill:#000;fill-opacity:1;stroke:none" id="rect2989-7" d="m 220,70 0,20 0,10 0,30 10,0 0,-30 20,0 0,30 10,0 0,-30 0,-10 -30,0 0,-20 -10,0 z"/><path style="fill:#000;fill-opacity:1;stroke:none" id="rect2989-1-8-9" d="m 270,90 0,10 30,0 0,5 -30,0 0,10 0,15 10,0 30,0 0,-10 0,-20 0,-10 -40,0 z m 10,25 20,0 0,5 -20,0 0,-5 z"/><path style="fill:#000;fill-opacity:1;stroke:none" id="rect2989-1-8-55-7" d="m 320,90 0,10 20,0 0,10 10,0 0,-10 10,0 0,-10 -40,0 z m 20,20 -10,0 0,10 -10,0 0,10 40,0 0,-10 -20,0 0,-10 z"/><path style="fill:#000;fill-opacity:1;stroke:none" id="rect2989-1-8-2-2" d="m 370,90 0,10 0,5 0,10 0,5 0,10 40,0 0,-10 -30,0 0,-5 30,0 0,-10 0,-15 -30,0 -10,0 z m 10,10 20,0 0,5 -20,0 0,-5 z"/><path style="fill:#000;fill-opacity:1;stroke:none" id="rect2989-85-9" d="m 420,90 0,10 0,20 0,10 10,0 30,0 0,-10 0,-20 0,-10 -40,0 z m 10,10 20,0 0,20 -20,0 0,-20 z"/><path style="fill:#000;fill-opacity:1;stroke:none" id="rect2989-1-8-20-9" d="m 470,90 0,10 0,30 10,0 0,-30 30,0 0,-10 -30,0 -10,0 z"/><path style="fill:#000;fill-opacity:1;stroke:none" id="rect4129-2" d="m 520,70 0,10 10,0 0,-10 -10,0 z m 0,20 0,40 10,0 0,-40 -10,0 z"/><path style="fill:#000;fill-opacity:1;stroke:none" id="rect2989-2-5" d="m 570,70 0,20 -30,0 0,10 0,20 0,10 10,0 30,0 0,-10 0,-50 -10,0 z m -20,30 20,0 0,20 -20,0 0,-20 z"/></g></g></svg>