<svg xmlns="http://www.w3.org/2000/svg" xmlns:svg="http://www.w3.org/2000/svg" id="svg2" width="700" height="100" version="1.1"><metadata id="metadata12"/><path id="path4-3" d="m 20.000004,20 v 20.000025 h 9.999997 v 19.99995 H 20.000004 V 80 H 40.000006 V 70.000025 H 60.000001 V 80 H 80.000004 V 59.999975 h -9.999998 v -19.99995 h 9.999998 V 20 H 60.000001 v 9.999975 H 40.000006 V 20 H 20.000004 z m 20.000002,20.000025 h 19.999995 v 19.99995 H 40.000006 v -19.99995 z" overflow="visible" style="color:#000;fill:#000;stroke:none;overflow:visible"><title id="title6-8">logogram</title></path><path id="path6399-0" d="m 95.000004,20 0,60 L 110,80 l 0,-22.5 30,0 0,22.5 15,0 0,-60 -15,0 0,22.5 -30,0 0,-22.5 z" style="color:#000;fill:#000;fill-opacity:1;fill-rule:nonzero;stroke:none;stroke-width:1px;marker:none;visibility:visible;display:inline;overflow:visible;enable-background:accumulate"/><path id="path6401-2" d="m 170,20 0,60 15,0 0,-22.5 30,0 0,22.5 15,0 0,-60 z m 15,15 30,0 0,7.5 -30,0 z" style="color:#000;fill:#000;fill-opacity:1;fill-rule:nonzero;stroke:none;stroke-width:1px;marker:none;visibility:visible;display:inline;overflow:visible;enable-background:accumulate"/><path id="path6413-3" d="m 245,20 0,15 30,0 0,15 15,0 0,-15 15,0 0,-15 -60,0 z m 30,30 -15,0 0,15 -15,0 0,15 60,0 0,-15 -30,0 0,-15 z" style="color:#000;fill:#000;fill-opacity:1;fill-rule:nonzero;stroke:none;stroke-width:1px;marker:none;visibility:visible;display:inline;overflow:visible;enable-background:accumulate"/><path id="path6403-1" d="m 320,20 0,60 60,0 0,-15 -45,0 0,-7.5 45,0 0,-15 -45,0 0,-7.5 45,0 0,-15 z" style="color:#000;fill:#000;fill-opacity:1;fill-rule:nonzero;stroke:none;stroke-width:1px;marker:none;visibility:visible;display:inline;overflow:visible;enable-background:accumulate"/><path id="path6405-9" d="m 395,20 0,60 60,0 0,-60 z m 15,15 30,0 0,30 -30,0 z" style="color:#000;fill:#000;fill-opacity:1;fill-rule:nonzero;stroke:none;stroke-width:1px;marker:none;visibility:visible;display:inline;overflow:visible;enable-background:accumulate"/><path id="path6407-9" d="m 470,20 0,60 15,0 0,-22.5 15,0 0,7.5 15,0 0,-7.5 15,0 0,-37.5 z m 45,45 0,15 15,0 0,-15 z m -30,-30 30,0 0,7.5 -30,0 z" style="color:#000;fill:#000;fill-opacity:1;fill-rule:nonzero;stroke:none;stroke-width:1px;marker:none;visibility:visible;display:inline;overflow:visible;enable-background:accumulate"/><path id="path6409-9" d="m 545,20 0,15 22.5,0 0,30 -22.5,0 0,15 60,0 0,-15 -22.5,0 0,-30 22.5,0 0,-15 z" style="color:#000;fill:#000;fill-opacity:1;fill-rule:nonzero;stroke:none;stroke-width:1px;marker:none;visibility:visible;display:inline;overflow:visible;enable-background:accumulate"/><path id="path6411-0" d="m 620,20 0,60 45,0 0,-15 -30,0 0,-30 30,0 0,-15 z m 45,15 0,30 15,0 0,-30 z" style="color:#000;fill:#000;fill-opacity:1;fill-rule:nonzero;stroke:none;stroke-width:1px;marker:none;visibility:visible;display:inline;overflow:visible;enable-background:accumulate"/></svg>