<?xml version="1.0" encoding="UTF-8" standalone="no"?>
<svg
   xmlns:dc="http://purl.org/dc/elements/1.1/"
   xmlns:cc="http://creativecommons.org/ns#"
   xmlns:rdf="http://www.w3.org/1999/02/22-rdf-syntax-ns#"
   xmlns:svg="http://www.w3.org/2000/svg"
   xmlns="http://www.w3.org/2000/svg"
   xmlns:sodipodi="http://sodipodi.sourceforge.net/DTD/sodipodi-0.dtd"
   xmlns:inkscape="http://www.inkscape.org/namespaces/inkscape"
   width="700"
   height="100"
   id="svg2"
   version="1.1"
   inkscape:version="0.48.4 r9939"
   sodipodi:docname="hazeorid_logomark_case-upper.svg"
   inkscape:export-filename="/home/agnium/all/repo/hazeorid/hazeorid-brand/assets/hazeorid_logomark_caps.png"
   inkscape:export-xdpi="90"
   inkscape:export-ydpi="90">
  <metadata
     id="metadata12">
    <rdf:RDF>
      <cc:Work
         rdf:about="">
        <dc:format>image/svg+xml</dc:format>
        <dc:type
           rdf:resource="http://purl.org/dc/dcmitype/StillImage" />
        <dc:title />
      </cc:Work>
    </rdf:RDF>
  </metadata>
  <defs
     id="defs10" />
  <sodipodi:namedview
     pagecolor="#ffffff"
     bordercolor="#666666"
     borderopacity="1"
     objecttolerance="10"
     gridtolerance="10"
     guidetolerance="10"
     inkscape:pageopacity="0"
     inkscape:pageshadow="2"
     inkscape:window-width="1366"
     inkscape:window-height="744"
     id="namedview8"
     showgrid="false"
     inkscape:zoom="0.24144494"
     inkscape:cx="-23.796201"
     inkscape:cy="349.07263"
     inkscape:window-x="0"
     inkscape:window-y="24"
     inkscape:window-maximized="1"
     inkscape:current-layer="svg2"
     inkscape:snap-bbox="true"
     inkscape:bbox-paths="true"
     inkscape:bbox-nodes="true"
     inkscape:snap-bbox-edge-midpoints="false"
     inkscape:snap-bbox-midpoints="true"
     inkscape:object-paths="true"
     inkscape:snap-intersection-paths="true"
     inkscape:object-nodes="true"
     inkscape:snap-smooth-nodes="true"
     inkscape:showpageshadow="false" />
  <path
     d="m 20.000004,20 v 20.000025 h 9.999997 v 19.99995 H 20.000004 V 80 H 40.000006 V 70.000025 H 60.000001 V 80 H 80.000004 V 59.999975 h -9.999998 v -19.99995 h 9.999998 V 20 H 60.000001 v 9.999975 H 40.000006 V 20 H 20.000004 z m 20.000002,20.000025 h 19.999995 v 19.99995 H 40.000006 v -19.99995 z"
     overflow="visible"
     id="path4-3"
     style="color:#000000;fill:#000000;stroke:none;overflow:visible"
     inkscape:connector-curvature="0">
    <title
       id="title6-8">logogram</title>
  </path>
  <path
     sodipodi:nodetypes="ccccccccccccc"
     inkscape:connector-curvature="0"
     id="path6399-0"
     d="m 95.000004,20 0,60 L 110,80 l 0,-22.5 30,0 0,22.5 15,0 0,-60 -15,0 0,22.5 -30,0 0,-22.5 z"
     style="color:#000000;fill:#000000;fill-opacity:1;fill-rule:nonzero;stroke:none;stroke-width:1px;marker:none;visibility:visible;display:inline;overflow:visible;enable-background:accumulate" />
  <path
     sodipodi:nodetypes="cccccccccccccc"
     inkscape:connector-curvature="0"
     id="path6401-2"
     d="m 170,20 0,60 15,0 0,-22.5 30,0 0,22.5 15,0 0,-60 z m 15,15 30,0 0,7.5 -30,0 z"
     style="color:#000000;fill:#000000;fill-opacity:1;fill-rule:nonzero;stroke:none;stroke-width:1px;marker:none;visibility:visible;display:inline;overflow:visible;enable-background:accumulate" />
  <path
     inkscape:connector-curvature="0"
     id="path6413-3"
     d="m 245,20 0,15 30,0 0,15 15,0 0,-15 15,0 0,-15 -60,0 z m 30,30 -15,0 0,15 -15,0 0,15 60,0 0,-15 -30,0 0,-15 z"
     style="color:#000000;fill:#000000;fill-opacity:1;fill-rule:nonzero;stroke:none;stroke-width:1px;marker:none;visibility:visible;display:inline;overflow:visible;enable-background:accumulate" />
  <path
     sodipodi:nodetypes="ccccccccccccc"
     inkscape:connector-curvature="0"
     id="path6403-1"
     d="m 320,20 0,60 60,0 0,-15 -45,0 0,-7.5 45,0 0,-15 -45,0 0,-7.5 45,0 0,-15 z"
     style="color:#000000;fill:#000000;fill-opacity:1;fill-rule:nonzero;stroke:none;stroke-width:1px;marker:none;visibility:visible;display:inline;overflow:visible;enable-background:accumulate" />
  <path
     sodipodi:nodetypes="cccccccccc"
     inkscape:connector-curvature="0"
     id="path6405-9"
     d="m 395,20 0,60 60,0 0,-60 z m 15,15 30,0 0,30 -30,0 z"
     style="color:#000000;fill:#000000;fill-opacity:1;fill-rule:nonzero;stroke:none;stroke-width:1px;marker:none;visibility:visible;display:inline;overflow:visible;enable-background:accumulate" />
  <path
     sodipodi:nodetypes="ccccccccccccccccccccc"
     inkscape:connector-curvature="0"
     id="path6407-9"
     d="m 470,20 0,60 15,0 0,-22.5 15,0 0,7.5 15,0 0,-7.5 15,0 0,-37.5 z m 45,45 0,15 15,0 0,-15 z m -30,-30 30,0 0,7.5 -30,0 z"
     style="color:#000000;fill:#000000;fill-opacity:1;fill-rule:nonzero;stroke:none;stroke-width:1px;marker:none;visibility:visible;display:inline;overflow:visible;enable-background:accumulate" />
  <path
     sodipodi:nodetypes="ccccccccccccc"
     inkscape:connector-curvature="0"
     id="path6409-9"
     d="m 545,20 0,15 22.5,0 0,30 -22.5,0 0,15 60,0 0,-15 -22.5,0 0,-30 22.5,0 0,-15 z"
     style="color:#000000;fill:#000000;fill-opacity:1;fill-rule:nonzero;stroke:none;stroke-width:1px;marker:none;visibility:visible;display:inline;overflow:visible;enable-background:accumulate" />
  <path
     sodipodi:nodetypes="cccccccccccccc"
     inkscape:connector-curvature="0"
     id="path6411-0"
     d="m 620,20 0,60 45,0 0,-15 -30,0 0,-30 30,0 0,-15 z m 45,15 0,30 15,0 0,-30 z"
     style="color:#000000;fill:#000000;fill-opacity:1;fill-rule:nonzero;stroke:none;stroke-width:1px;marker:none;visibility:visible;display:inline;overflow:visible;enable-background:accumulate" />
</svg>
