<?xml version="1.0" encoding="UTF-8" standalone="no"?>
<!-- Created with Inkscape (http://www.inkscape.org/) -->

<svg
   xmlns:dc="http://purl.org/dc/elements/1.1/"
   xmlns:cc="http://creativecommons.org/ns#"
   xmlns:rdf="http://www.w3.org/1999/02/22-rdf-syntax-ns#"
   xmlns:svg="http://www.w3.org/2000/svg"
   xmlns="http://www.w3.org/2000/svg"
   xmlns:sodipodi="http://sodipodi.sourceforge.net/DTD/sodipodi-0.dtd"
   xmlns:inkscape="http://www.inkscape.org/namespaces/inkscape"
   inkscape:version="0.48.4 r9939"
   version="1.1"
   id="svg2"
   height="100"
   width="100"
   sodipodi:docname="hazeorid_logo_border-black.svg"
   inkscape:export-filename="/home/agnium/all/repo/hazeorid/hazeorid-brand/assets/hazeorid_logo.png"
   inkscape:export-xdpi="90"
   inkscape:export-ydpi="90">
  <sodipodi:namedview
     id="base"
     pagecolor="#ffffff"
     bordercolor="#000000"
     borderopacity="1"
     inkscape:pageopacity="0.0"
     inkscape:pageshadow="2"
     inkscape:zoom="2.4979531"
     inkscape:cx="21.235466"
     inkscape:cy="40.989258"
     inkscape:document-units="px"
     inkscape:current-layer="layer2"
     showgrid="false"
     showborder="true"
     inkscape:showpageshadow="false"
     borderlayer="false"
     objecttolerance="10000"
     guidetolerance="10000"
     inkscape:window-width="1366"
     inkscape:window-height="744"
     inkscape:window-x="0"
     inkscape:window-y="24"
     inkscape:window-maximized="1"
     showguides="true"
     inkscape:snap-bbox="true"
     inkscape:guide-bbox="true"
     inkscape:bbox-nodes="true"
     inkscape:snap-global="true">
    <inkscape:grid
       type="xygrid"
       id="grid3777"
       empspacing="5"
       visible="true"
       enabled="true"
       snapvisiblegridlinesonly="true" />
  </sodipodi:namedview>
  <defs
     id="defs4" />
  <metadata
     id="metadata7">
    <rdf:RDF>
      <cc:Work
         rdf:about="">
        <dc:format>image/svg+xml</dc:format>
        <dc:type
           rdf:resource="http://purl.org/dc/dcmitype/StillImage" />
        <dc:title />
      </cc:Work>
    </rdf:RDF>
  </metadata>
  <g
     inkscape:groupmode="layer"
     id="layer2"
     inkscape:label="Color"
     style="display:inline"
     transform="translate(0,-900)">
    <path
       style="fill:#000000;fill-opacity:1;stroke:none;display:inline"
       d="m 15,915 0,30 10,0 0,10 -10,0 0,30 30,0 0,-10 10,0 0,10 30,0 0,-30 -10,0 0,-10 10,0 0,-30 -30,0 0,10 -10,0 0,-10 z m 30,30 10,0 0,10 -10,0 z"
       id="rect2986-5-9"
       inkscape:connector-curvature="0"
       sodipodi:nodetypes="cccccccccccccccccccccccccc" />
    <g
       transform="translate(19.999999,-20)"
       style="display:inline"
       id="g3265">
      <path
         id="rect2986-5"
         d="m 0,940 20.000002,0 0,20 L 0,960 z"
         style="fill:#ef5350;fill-opacity:1;stroke:none;display:inline"
         inkscape:connector-curvature="0" />
      <path
         id="rect2988-3"
         d="m 20.000002,950.00001 20,0 0,10 -20,0 z"
         style="fill:#78909c;fill-opacity:1;stroke:none;display:inline"
         inkscape:connector-curvature="0" />
      <path
         id="rect2986-7-2"
         d="m 40.000002,940.00001 20,0 0,20 -20,0 z"
         style="fill:#ffca28;fill-opacity:1;stroke:none;display:inline"
         inkscape:connector-curvature="0" />
      <path
         id="rect2986-3-5"
         d="m 0,980.00001 20.000002,0 0,19.99999 L 0,1000 z"
         style="fill:#26a69a;fill-opacity:1;stroke:none;display:inline"
         inkscape:connector-curvature="0" />
      <path
         id="rect2988-0-8"
         d="m 20.000002,980.00001 20,0 0,10 -20,0 z"
         style="fill:#bdbdbd;fill-opacity:1;stroke:none;display:inline"
         inkscape:connector-curvature="0" />
      <path
         id="rect2986-7-4-4"
         d="m 40.000002,980.00001 20,0 0,19.99999 -20,0 z"
         style="fill:#42a5f5;fill-opacity:1;stroke:none;display:inline"
         inkscape:connector-curvature="0" />
      <path
         id="rect2988-0-9-81"
         d="m 10.000002,980.00001 0,-20 10,0 0,20 z"
         style="fill:#7e57c2;fill-opacity:1;stroke:none;display:inline"
         inkscape:connector-curvature="0" />
      <path
         id="rect2988-0-9-8-1"
         d="m 40.000002,980.00001 0,-20 10,0 0,20 z"
         style="fill:#8d6e63;fill-opacity:1;stroke:none;display:inline"
         inkscape:connector-curvature="0" />
    </g>
  </g>
</svg>
