<svg xmlns="http://www.w3.org/2000/svg" xmlns:svg="http://www.w3.org/2000/svg" id="svg2" width="100" height="100" version="1.1"><metadata id="metadata7"/><g id="layer2" transform="translate(0,-900)" style="display:inline"><path style="fill:#fff;fill-opacity:1;stroke:none;display:inline" id="rect2986-5-9" d="m 18,918 0,24 10,0 0,16 -10,0 0,24 24,0 0,-10 16,0 0,10 24,0 0,-24 -10,0 0,-16 10,0 0,-24 -24,0 0,10 -16,0 0,-10 z m 24,24 16,0 0,16 -16,0 z"/><g style="display:inline" id="g3265" transform="translate(19.999999,-20)"><path id="rect2986-5" d="m 0,940 20.000002,0 0,20 L 0,960 z" style="fill:#ef5350;fill-opacity:1;stroke:none;display:inline"/><path id="rect2988-3" d="m 20.000002,950.00001 20,0 0,10 -20,0 z" style="fill:#78909c;fill-opacity:1;stroke:none;display:inline"/><path id="rect2986-7-2" d="m 40.000002,940.00001 20,0 0,20 -20,0 z" style="fill:#ffca28;fill-opacity:1;stroke:none;display:inline"/><path id="rect2986-3-5" d="m 0,980.00001 20.000002,0 0,19.99999 L 0,1000 z" style="fill:#26a69a;fill-opacity:1;stroke:none;display:inline"/><path id="rect2988-0-8" d="m 20.000002,980.00001 20,0 0,10 -20,0 z" style="fill:#bdbdbd;fill-opacity:1;stroke:none;display:inline"/><path id="rect2986-7-4-4" d="m 40.000002,980.00001 20,0 0,19.99999 -20,0 z" style="fill:#42a5f5;fill-opacity:1;stroke:none;display:inline"/><path id="rect2988-0-9-81" d="m 10.000002,980.00001 0,-20 10,0 0,20 z" style="fill:#7e57c2;fill-opacity:1;stroke:none;display:inline"/><path id="rect2988-0-9-8-1" d="m 40.000002,980.00001 0,-20 10,0 0,20 z" style="fill:#8d6e63;fill-opacity:1;stroke:none;display:inline"/></g></g></svg>