<svg xmlns="http://www.w3.org/2000/svg" xmlns:svg="http://www.w3.org/2000/svg" id="svg2" width="60" height="60" version="1.1"><metadata id="metadata7"/><g id="layer2" transform="translate(0,-940)" style="display:inline"><g id="g3265"><path id="rect2986-5" d="m 0,940 20.000002,0 0,20 L 0,960 z" style="fill:#ef5350;fill-opacity:1;stroke:none;display:inline"/><path id="rect2988-3" d="m 20.000002,950.00001 20,0 0,10 -20,0 z" style="fill:#78909c;fill-opacity:1;stroke:none;display:inline"/><path id="rect2986-7-2" d="m 40.000002,940.00001 20,0 0,20 -20,0 z" style="fill:#ffca28;fill-opacity:1;stroke:none;display:inline"/><path id="rect2986-3-5" d="m 0,980.00001 20.000002,0 0,19.99999 L 0,1000 z" style="fill:#26a69a;fill-opacity:1;stroke:none;display:inline"/><path id="rect2988-0-8" d="m 20.000002,980.00001 20,0 0,10 -20,0 z" style="fill:#bdbdbd;fill-opacity:1;stroke:none;display:inline"/><path id="rect2986-7-4-4" d="m 40.000002,980.00001 20,0 0,19.99999 -20,0 z" style="fill:#42a5f5;fill-opacity:1;stroke:none;display:inline"/><path id="rect2988-0-9-81" d="m 10.000002,980.00001 0,-20 10,0 0,20 z" style="fill:#7e57c2;fill-opacity:1;stroke:none;display:inline"/><path id="rect2988-0-9-8-1" d="m 40.000002,980.00001 0,-20 10,0 0,20 z" style="fill:#8d6e63;fill-opacity:1;stroke:none;display:inline"/></g><g id="g3247" transform="translate(-26.272904,-93.780135)"><path id="rect2986-6" d="m 96.272906,1033.7801 20.000004,0 0,10 -10,0 0,10 -10.000004,0 z" style="fill:#ef5350;fill-opacity:1;stroke:none;display:inline"/><path id="rect2988-5" d="m 116.27291,1043.7801 20,0 0,10 -20,0 z" style="fill:#78909c;fill-opacity:1;stroke:none;display:inline"/><path id="rect2986-7-5" d="m 136.27291,1033.7801 20,0 0,20 -10,0 0,-10 -10,0 z" style="fill:#ffca28;fill-opacity:1;stroke:none;display:inline"/><path id="rect2986-3-0" d="m 96.272906,1073.7802 10.000004,0 0,10 10,0 0,10 -20.000004,0 z" style="fill:#26a69a;fill-opacity:1;stroke:none;display:inline"/><path id="rect2988-0-4" d="m 116.27291,1073.7802 20,0 0,10 -20,0 z" style="fill:#bdbdbd;fill-opacity:1;stroke:none;display:inline"/><path id="rect2986-7-4-8" d="m 136.27291,1083.7802 10,0 0,-10 10,0 0,20 -20,0 z" style="fill:#42a5f5;fill-opacity:1;stroke:none;display:inline"/><path id="rect2988-0-9-5" d="m 106.27291,1073.7802 0,-20.0001 10,0 0,20.0001 z" style="fill:#7e57c2;fill-opacity:1;stroke:none;display:inline"/><path id="rect2988-0-9-8-7" d="m 136.27291,1073.7802 0,-20.0001 10,0 0,20.0001 z" style="fill:#8d6e63;fill-opacity:1;stroke:none;display:inline"/></g></g></svg>