<svg xmlns="http://www.w3.org/2000/svg" xmlns:svg="http://www.w3.org/2000/svg" id="svg2" width="60" height="60" version="1.1"><metadata id="metadata7"/><g id="layer2" transform="translate(0,-940)" style="display:inline"><path style="color:#000;fill:#42a5f5;fill-opacity:1;fill-rule:nonzero;stroke:none;stroke-width:1px;marker:none;visibility:visible;display:inline;overflow:visible;enable-background:accumulate" id="path4023-4" d="M 5 0 C 2.238577 0 0 2.23858 0 5 L 0 15 C 0 17.76142 2.238577 20 5 20 C 7.761423 20 10 22.23858 10 25 L 10 35 C 10 37.76142 7.761423 40 5 40 C 2.238577 40 0 42.23858 0 45 L 0 55 C 0 57.76142 2.238577 60 5 60 L 15 60 C 17.76142 60 20 57.76142 20 55 C 20 52.23858 22.238577 50 25 50 L 35 50 C 37.761423 50 40 52.23858 40 55 C 40 57.76142 42.23858 60 45 60 L 55 60 C 57.761423 60 60 57.76142 60 55 L 60 45 C 60 42.23858 57.761423 40 55 40 C 52.238577 40 50 37.76142 50 35 L 50 25 C 50 22.23858 52.238577 20 55 20 C 57.761423 20 60 17.76142 60 15 L 60 5 C 60 2.23858 57.761423 0 55 0 L 45 0 C 42.23858 0 40 2.23858 40 5 C 40 7.76142 37.761423 10 35 10 L 25 10 C 22.238577 10 20 7.76142 20 5 C 20 2.23858 17.76142 0 15 0 L 5 0 z M 25 20 L 35 20 C 37.761423 20 40 22.23858 40 25 L 40 35 C 40 37.76142 37.761423 40 35 40 L 25 40 C 22.238577 40 20 37.76142 20 35 L 20 25 C 20 22.23858 22.238577 20 25 20 z" transform="translate(0,940)"/><rect style="fill:#00e676;fill-opacity:1;stroke:none" id="rect2999-0" width="10" height="0" x="-950" y="20" transform="matrix(0,-1,1,0,0,0)"/></g></svg>