<svg xmlns="http://www.w3.org/2000/svg" xmlns:svg="http://www.w3.org/2000/svg" id="svg2" width="100" height="100" version="1.1"><metadata id="metadata7"/><g id="layer2" transform="translate(0,-900)" style="display:inline"><path style="color:#000;fill:#42a5f5;fill-opacity:1;fill-rule:nonzero;stroke:none;stroke-width:1px;marker:none;visibility:visible;display:inline;overflow:visible;enable-background:accumulate" id="path4023-4" d="m 25,920 c -2.761423,0 -5,2.23858 -5,5 l 0,10 c 0,2.76142 2.238577,5 5,5 2.761423,0 5,2.23858 5,5 l 0,10 c 0,2.76142 -2.238577,5 -5,5 -2.761423,0 -5,2.23858 -5,5 l 0,10 c 0,2.76142 2.238577,5 5,5 l 10,0 c 2.76142,0 5,-2.23858 5,-5 0,-2.76142 2.238577,-5 5,-5 l 10,0 c 2.761423,0 5,2.23858 5,5 0,2.76142 2.23858,5 5,5 l 10,0 c 2.761423,0 5,-2.23858 5,-5 l 0,-10 c 0,-2.76142 -2.238577,-5 -5,-5 -2.761423,0 -5,-2.23858 -5,-5 l 0,-10 c 0,-2.76142 2.238577,-5 5,-5 2.761423,0 5,-2.23858 5,-5 l 0,-10 c 0,-2.76142 -2.238577,-5 -5,-5 l -10,0 c -2.76142,0 -5,2.23858 -5,5 0,2.76142 -2.238577,5 -5,5 l -10,0 c -2.761423,0 -5,-2.23858 -5,-5 0,-2.76142 -2.23858,-5 -5,-5 l -10,0 z m 20,20 10,0 c 2.761423,0 5,2.23858 5,5 l 0,10 c 0,2.76142 -2.238577,5 -5,5 l -10,0 c -2.761423,0 -5,-2.23858 -5,-5 l 0,-10 c 0,-2.76142 2.238577,-5 5,-5 z"/><rect style="fill:#00e676;fill-opacity:1;stroke:none" id="rect2999-0" width="10" height="0" x="-950" y="20" transform="matrix(0,-1,1,0,0,0)"/></g></svg>