<?xml version="1.0" encoding="UTF-8" standalone="no"?>
<!-- Created with Inkscape (http://www.inkscape.org/) -->

<svg
   xmlns:dc="http://purl.org/dc/elements/1.1/"
   xmlns:cc="http://creativecommons.org/ns#"
   xmlns:rdf="http://www.w3.org/1999/02/22-rdf-syntax-ns#"
   xmlns:svg="http://www.w3.org/2000/svg"
   xmlns="http://www.w3.org/2000/svg"
   xmlns:sodipodi="http://sodipodi.sourceforge.net/DTD/sodipodi-0.dtd"
   xmlns:inkscape="http://www.inkscape.org/namespaces/inkscape"
   inkscape:version="0.48.4 r9939"
   version="1.1"
   id="svg2"
   height="100"
   width="100"
   sodipodi:docname="hazeorid_logo-rounded_on-blank.svg"
   inkscape:export-filename="/home/agnium/all/repo/hazeorid/hazeorid-brand/assets/hazeorid_logo.png"
   inkscape:export-xdpi="90"
   inkscape:export-ydpi="90">
  <sodipodi:namedview
     id="base"
     pagecolor="#ffffff"
     bordercolor="#000000"
     borderopacity="1"
     inkscape:pageopacity="0.0"
     inkscape:pageshadow="2"
     inkscape:zoom="4.4252765"
     inkscape:cx="16.255733"
     inkscape:cy="4.3629885"
     inkscape:document-units="px"
     inkscape:current-layer="layer2"
     showgrid="false"
     showborder="true"
     inkscape:showpageshadow="false"
     borderlayer="false"
     objecttolerance="10000"
     guidetolerance="10000"
     inkscape:window-width="1366"
     inkscape:window-height="744"
     inkscape:window-x="0"
     inkscape:window-y="24"
     inkscape:window-maximized="1"
     showguides="true"
     inkscape:snap-bbox="false"
     inkscape:guide-bbox="true"
     inkscape:bbox-nodes="false"
     inkscape:snap-global="false"
     inkscape:object-nodes="true"
     inkscape:snap-grids="false"
     inkscape:snap-to-guides="false">
    <inkscape:grid
       type="xygrid"
       id="grid3777"
       empspacing="5"
       visible="true"
       enabled="true"
       snapvisiblegridlinesonly="true" />
  </sodipodi:namedview>
  <defs
     id="defs4" />
  <metadata
     id="metadata7">
    <rdf:RDF>
      <cc:Work
         rdf:about="">
        <dc:format>image/svg+xml</dc:format>
        <dc:type
           rdf:resource="http://purl.org/dc/dcmitype/StillImage" />
        <dc:title />
      </cc:Work>
    </rdf:RDF>
  </metadata>
  <g
     inkscape:groupmode="layer"
     id="layer2"
     inkscape:label="Color"
     style="display:inline"
     transform="translate(0,-900)">
    <path
       style="color:#000000;fill:#42a5f5;fill-opacity:1;fill-rule:nonzero;stroke:none;stroke-width:1px;marker:none;visibility:visible;display:inline;overflow:visible;enable-background:accumulate"
       d="m 25,920 c -2.761423,0 -5,2.23858 -5,5 l 0,10 c 0,2.76142 2.238577,5 5,5 2.761423,0 5,2.23858 5,5 l 0,10 c 0,2.76142 -2.238577,5 -5,5 -2.761423,0 -5,2.23858 -5,5 l 0,10 c 0,2.76142 2.238577,5 5,5 l 10,0 c 2.76142,0 5,-2.23858 5,-5 0,-2.76142 2.238577,-5 5,-5 l 10,0 c 2.761423,0 5,2.23858 5,5 0,2.76142 2.23858,5 5,5 l 10,0 c 2.761423,0 5,-2.23858 5,-5 l 0,-10 c 0,-2.76142 -2.238577,-5 -5,-5 -2.761423,0 -5,-2.23858 -5,-5 l 0,-10 c 0,-2.76142 2.238577,-5 5,-5 2.761423,0 5,-2.23858 5,-5 l 0,-10 c 0,-2.76142 -2.238577,-5 -5,-5 l -10,0 c -2.76142,0 -5,2.23858 -5,5 0,2.76142 -2.238577,5 -5,5 l -10,0 c -2.761423,0 -5,-2.23858 -5,-5 0,-2.76142 -2.23858,-5 -5,-5 l -10,0 z m 20,20 10,0 c 2.761423,0 5,2.23858 5,5 l 0,10 c 0,2.76142 -2.238577,5 -5,5 l -10,0 c -2.761423,0 -5,-2.23858 -5,-5 l 0,-10 c 0,-2.76142 2.238577,-5 5,-5 z"
       id="path4023-4"
       inkscape:connector-curvature="0" />
    <rect
       style="fill:#00e676;fill-opacity:1;stroke:none"
       id="rect2999-0"
       width="10"
       height="4.6325681e-07"
       x="-950"
       y="19.99999"
       transform="matrix(0,-1,1,0,0,0)" />
  </g>
</svg>
