<svg xmlns="http://www.w3.org/2000/svg" xmlns:svg="http://www.w3.org/2000/svg" id="svg2" width="1000" height="2000" version="1.1"><metadata id="metadata7"/><g id="layer2" transform="translate(0,1000)" style="display:inline"><g id="g2999" transform="translate(-1536.7363,-815.65664)"><path style="color:#000;fill:#e3f2fd;fill-opacity:1;fill-rule:nonzero;stroke:none;stroke-width:1px;marker:none;visibility:visible;display:inline;overflow:visible;enable-background:accumulate" id="path3202-4" d="m 1536.7363,-184.34336 1000,0 0,999.99994 -1000,0 z"/><path id="path4023-8" d="m 1736.7363,15.656608 0,200.000002 100,0 0,200 -100,0 0,200 200,0 0,-100 200,0 0,100 200,0 0,-200 -100,0 0,-200 100,0 0,-200.000002 -200,0 0,100.000002 -200,0 0,-100.000002 -200,0 z m 200,200.000002 200,0 0,200 -200,0 0,-200 z" style="color:#000;fill:#1976d2;fill-opacity:1;fill-rule:nonzero;stroke:none;stroke-width:1px;marker:none;visibility:visible;display:inline;overflow:visible;enable-background:accumulate"/><path id="path4025-0" d="m 1936.7363,215.65661 0,200 200,200 0,-200 -100,0 0,-200 100,0 0,-200.000002 z" style="color:#000;fill:#2196f3;fill-opacity:1;fill-rule:nonzero;stroke:none;stroke-width:20;marker:none;visibility:visible;display:inline;overflow:visible;enable-background:accumulate"/><path style="color:#000;fill:#42a5f5;fill-opacity:1;fill-rule:nonzero;stroke:none;stroke-width:20;marker:none;visibility:visible;display:inline;overflow:visible;enable-background:accumulate" id="path4027-0" d="m 2136.7363,415.65661 -200,0 -200,-200 200,0 0,100 200,0 0,-100 200,0 z"/><path style="color:#000;fill:#1e88e5;fill-opacity:1;fill-rule:nonzero;stroke:none;stroke-width:20;marker:none;visibility:visible;display:inline;overflow:visible;enable-background:accumulate" id="path4029-2" d="m 1936.7363,215.65661 200,0 200,200 -200,0 0,-100 -200,0 0,100 -200,0 z"/></g><g id="g3006" transform="translate(-1000,-1000)"><path style="color:#000;fill:#e3f2fd;fill-opacity:1;fill-rule:nonzero;stroke:none;stroke-width:1px;marker:none;visibility:visible;display:inline;overflow:visible;enable-background:accumulate" id="path3202-5" d="m 1000,999.99997 1000,0 0,1000.00003 -1000,0 z"/><path id="path4023-2" d="m 1200,1200 0,200 100,0 0,200 -100,0 0,200 200,0 0,-100 200,0 0,100 200,0 0,-200 -100,0 0,-200 100,0 0,-200 -200,0 0,100 -200,0 0,-100 -200,0 z m 200,200 200,0 0,200 -200,0 0,-200 z" style="color:#000;fill:#1976d2;fill-opacity:1;fill-rule:nonzero;stroke:none;stroke-width:1px;marker:none;visibility:visible;display:inline;overflow:visible;enable-background:accumulate"/><path id="path4025-1" d="m 1600,1400 0,200 200,200 0,-200 -100,0 0,-200 100,0 0,-200 z" style="color:#000;fill:#2196f3;fill-opacity:1;fill-rule:nonzero;stroke:none;stroke-width:20;marker:none;visibility:visible;display:inline;overflow:visible;enable-background:accumulate"/><path style="color:#000;fill:#42a5f5;fill-opacity:1;fill-rule:nonzero;stroke:none;stroke-width:20;marker:none;visibility:visible;display:inline;overflow:visible;enable-background:accumulate" id="path4027-2" d="m 1600,1600 -200,0 -200,-200 200,0 0,100 200,0 0,-100 200,0 z"/><path style="color:#000;fill:#1e88e5;fill-opacity:1;fill-rule:nonzero;stroke:none;stroke-width:20;marker:none;visibility:visible;display:inline;overflow:visible;enable-background:accumulate" id="path4029-1" d="m 1400,1400 200,0 200,200 -200,0 0,-100 -200,0 0,100 -200,0 z"/></g><path id="path3202-4-3" d="m 1000,-1000 1000,0 0,999.99994 -1000,0 z" style="color:#000;fill:#e3f2fd;fill-opacity:1;fill-rule:nonzero;stroke:none;stroke-width:1px;marker:none;visibility:visible;display:inline;overflow:visible;enable-background:accumulate"/><path style="color:#000;fill:#f44336;fill-opacity:1;fill-rule:nonzero;stroke:none;stroke-width:1px;marker:none;visibility:visible;display:inline;overflow:visible;enable-background:accumulate" id="path4023-8-9" d="m 1200,-800.00003 0,200 100,0 0,200 -100,0 0,200 200,0 0,-100 200,0 0,100 200,0 0,-200 -100,0 0,-200 100,0 0,-200 -200,0 0,100 -200,0 0,-100 -200,0 z m 200,200 200,0 0,200 -200,0 0,-200 z"/><path style="color:#000;fill:#00bcd4;fill-opacity:1;fill-rule:nonzero;stroke:none;stroke-width:20;marker:none;visibility:visible;display:inline;overflow:visible;enable-background:accumulate" id="path4025-0-3" d="m 1400,-600.00003 0,200 200,200 0,-200 -100,0 0,-200 100,0 0,-200 z"/><path id="path4027-0-7" d="m 1600,-400.00003 -200,0 -200,-200 200,0 0,100 200,0 0,-100 200,0 z" style="color:#000;fill:#2196f3;fill-opacity:1;fill-rule:nonzero;stroke:none;stroke-width:20;marker:none;visibility:visible;display:inline;overflow:visible;enable-background:accumulate"/><path id="path4029-2-9" d="m 1400,-600.00003 200,0 200,200 -200,0 0,-100 -200,0 0,100 -200,0 z" style="color:#000;fill:#ffc107;fill-opacity:1;fill-rule:nonzero;stroke:none;stroke-width:20;marker:none;visibility:visible;display:inline;overflow:visible;enable-background:accumulate"/><path id="path3202-5-9" d="m 1000,-3e-5 1000,0 0,1000.00003 -1000,0 z" style="color:#000;fill:#e3f2fd;fill-opacity:1;fill-rule:nonzero;stroke:none;stroke-width:1px;marker:none;visibility:visible;display:inline;overflow:visible;enable-background:accumulate"/><path style="color:#000;fill:#f44336;fill-opacity:1;fill-rule:nonzero;stroke:none;stroke-width:1px;marker:none;visibility:visible;display:inline;overflow:visible;enable-background:accumulate" id="path4023-2-1" d="m 1200,200 0,200 100,0 0,200 -100,0 0,200 200,0 0,-100 200,0 0,100 200,0 0,-200 -100,0 0,-200 100,0 0,-200 -200,0 0,100 -200,0 0,-100 -200,0 z m 200,200 200,0 0,200 -200,0 0,-200 z"/><path style="color:#000;fill:#00bcd4;fill-opacity:1;fill-rule:nonzero;stroke:none;stroke-width:20;marker:none;visibility:visible;display:inline;overflow:visible;enable-background:accumulate" id="path4025-1-8" d="m 1600,400 0,200 200,200 0,-200 -100,0 0,-200 100,0 0,-200 z"/><path id="path4027-2-8" d="m 1600,600 -200,0 -200,-200 200,0 0,100 200,0 0,-100 200,0 z" style="color:#000;fill:#2196f3;fill-opacity:1;fill-rule:nonzero;stroke:none;stroke-width:20;marker:none;visibility:visible;display:inline;overflow:visible;enable-background:accumulate"/><path id="path4029-1-5" d="m 1400,400 200,0 200,200 -200,0 0,-100 -200,0 0,100 -200,0 z" style="color:#000;fill:#ffc107;fill-opacity:1;fill-rule:nonzero;stroke:none;stroke-width:20;marker:none;visibility:visible;display:inline;overflow:visible;enable-background:accumulate"/></g></svg>