<?xml version="1.0" encoding="UTF-8" standalone="no"?>
<svg
   xmlns:dc="http://purl.org/dc/elements/1.1/"
   xmlns:cc="http://creativecommons.org/ns#"
   xmlns:rdf="http://www.w3.org/1999/02/22-rdf-syntax-ns#"
   xmlns:svg="http://www.w3.org/2000/svg"
   xmlns="http://www.w3.org/2000/svg"
   xmlns:sodipodi="http://sodipodi.sourceforge.net/DTD/sodipodi-0.dtd"
   xmlns:inkscape="http://www.inkscape.org/namespaces/inkscape"
   width="3000"
   height="3000"
   id="svg2"
   version="1.1"
   inkscape:version="0.48.4 r9939"
   sodipodi:docname="hazeorid_logomark_square.svg"
   inkscape:export-filename="/home/agnium/all/repo/hazeorid/hazeorid-brand/assets/hazeorid_logomark_square.png"
   inkscape:export-xdpi="90"
   inkscape:export-ydpi="90">
  <metadata
     id="metadata12">
    <rdf:RDF>
      <cc:Work
         rdf:about="">
        <dc:format>image/svg+xml</dc:format>
        <dc:type
           rdf:resource="http://purl.org/dc/dcmitype/StillImage" />
        <dc:title></dc:title>
      </cc:Work>
    </rdf:RDF>
  </metadata>
  <defs
     id="defs10" />
  <sodipodi:namedview
     pagecolor="#ffffff"
     bordercolor="#666666"
     borderopacity="1"
     objecttolerance="10"
     gridtolerance="10"
     guidetolerance="10"
     inkscape:pageopacity="0"
     inkscape:pageshadow="2"
     inkscape:window-width="1366"
     inkscape:window-height="744"
     id="namedview8"
     showgrid="false"
     inkscape:zoom="0.076931797"
     inkscape:cx="2157.5188"
     inkscape:cy="1274.4464"
     inkscape:window-x="0"
     inkscape:window-y="24"
     inkscape:window-maximized="1"
     inkscape:current-layer="layer2"
     inkscape:snap-bbox="true"
     inkscape:bbox-paths="true"
     inkscape:bbox-nodes="true"
     inkscape:snap-bbox-edge-midpoints="false"
     inkscape:snap-bbox-midpoints="true"
     inkscape:object-paths="true"
     inkscape:snap-intersection-paths="true"
     inkscape:object-nodes="true"
     inkscape:snap-smooth-nodes="true"
     inkscape:showpageshadow="false"
     inkscape:snap-global="true" />
  <g
     inkscape:groupmode="layer"
     id="layer1"
     inkscape:label="bg"
     sodipodi:insensitive="true"
     style="display:inline">
    <rect
       style="fill:#e3f2fd;fill-opacity:1;stroke:none"
       id="rect4299"
       width="3000"
       height="3000"
       x="0"
       y="0" />
  </g>
  <g
     inkscape:groupmode="layer"
     id="layer2"
     inkscape:label="design"
     style="display:inline">
    <path
       d="m 1100,1100 v 266.6667 h 133.3333 v 266.6666 H 1100 V 1900 h 266.6667 v -133.3333 h 266.6666 V 1900 H 1900 V 1633.3333 H 1766.6667 V 1366.6667 H 1900 V 1100 h -266.6667 v 133.3333 H 1366.6667 V 1100 H 1100 z m 266.6667,266.6667 h 266.6666 v 266.6666 h -266.6666 v -266.6666 z"
       overflow="visible"
       id="path4"
       style="color:#000000;fill:#42a5f5;stroke:none;overflow:visible"
       inkscape:connector-curvature="0">
      <title
         id="title6">logogram</title>
    </path>
    <g
       id="g3184"
       transform="translate(415.97561,453.19708)"
       style="fill:#bbdefb">
      <path
         id="rect6428-8"
         d="m -415.97563,446.80294 3000.00003,0 0,100 -3000.00003,0 z"
         style="color:#000000;fill:#bbdefb;fill-opacity:1;fill-rule:nonzero;stroke:none;stroke-width:1px;marker:none;visibility:visible;display:inline;overflow:visible;enable-background:accumulate"
         inkscape:connector-curvature="0" />
      <path
         id="rect6428-5-8"
         d="m -415.97563,1546.8029 3000.00003,0 0,100 -3000.00003,0 z"
         style="color:#000000;fill:#bbdefb;fill-opacity:1;fill-rule:nonzero;stroke:none;stroke-width:1px;marker:none;visibility:visible;display:inline;overflow:visible;enable-background:accumulate"
         inkscape:connector-curvature="0" />
      <path
         id="rect6428-3-3"
         d="m 484.02437,2546.8029 0,-2999.99996 100,0 0,2999.99996 z"
         style="color:#000000;fill:#bbdefb;fill-opacity:1;fill-rule:nonzero;stroke:none;stroke-width:1px;marker:none;visibility:visible;display:inline;overflow:visible;enable-background:accumulate"
         inkscape:connector-curvature="0" />
      <path
         id="rect6428-5-1-5"
         d="m 1584.0244,2546.8029 0,-2999.99996 100,0 0,2999.99996 z"
         style="color:#000000;fill:#bbdefb;fill-opacity:1;fill-rule:nonzero;stroke:none;stroke-width:1px;marker:none;visibility:visible;display:inline;overflow:visible;enable-background:accumulate"
         inkscape:connector-curvature="0" />
    </g>
    <path
       sodipodi:nodetypes="ccccccccccccc"
       inkscape:connector-curvature="0"
       id="path6399-0"
       d="m -3.4e-5,1e-5 0,800.00001 200.000004,0 0,-300 400,0 0,300 200.00001,0 0,-800.00001 -200.00001,0 0,300.00001 -400,0 0,-300.00001 z"
       style="color:#000000;fill:#455a64;fill-opacity:1;fill-rule:nonzero;stroke:none;stroke-width:1px;marker:none;visibility:visible;display:inline;overflow:visible;enable-background:accumulate" />
    <path
       sodipodi:nodetypes="cccccccccccccc"
       inkscape:connector-curvature="0"
       id="path6401-2"
       d="m 1100,2e-5 0,800 200,0 0,-300 400,0 0,300 200,0 0,-800 z m 200,200 400,0 0,100 -400,0 z"
       style="color:#000000;fill:#455a64;fill-opacity:1;fill-rule:nonzero;stroke:none;stroke-width:1px;marker:none;visibility:visible;display:inline;overflow:visible;enable-background:accumulate" />
    <path
       inkscape:connector-curvature="0"
       id="path6413-3"
       d="m 2200,0 0,200 400,0 0,200 200,0 0,-200 200,0 0,-200 -800,0 z m 400,400 -200,0 0,200 -200,0 0,200 800,0 0,-200 -400,0 0,-200 z"
       style="color:#000000;fill:#455a64;fill-opacity:1;fill-rule:nonzero;stroke:none;stroke-width:1px;marker:none;visibility:visible;display:inline;overflow:visible;enable-background:accumulate" />
    <path
       sodipodi:nodetypes="ccccccccccccc"
       inkscape:connector-curvature="0"
       id="path6403-1"
       d="m 0,1100 0,800 800,0 0,-200 -600,0 0,-100 600,0 0,-200 -600,0 0,-100 600,0 0,-200 z"
       style="color:#000000;fill:#455a64;fill-opacity:1;fill-rule:nonzero;stroke:none;stroke-width:1px;marker:none;visibility:visible;display:inline;overflow:visible;enable-background:accumulate" />
    <path
       sodipodi:nodetypes="cccccccccc"
       inkscape:connector-curvature="0"
       id="path6405-9"
       d="m 2200,1100 0,800 800,0 0,-800 z m 200,200 400,0 0,400 -400,0 z"
       style="color:#000000;fill:#455a64;fill-opacity:1;fill-rule:nonzero;stroke:none;stroke-width:1px;marker:none;visibility:visible;display:inline;overflow:visible;enable-background:accumulate" />
    <path
       sodipodi:nodetypes="ccccccccccccccccccccc"
       inkscape:connector-curvature="0"
       id="path6407-9"
       d="m 0,2200 0,800 200,0 0,-300 200,0 0,100 200,0 0,-100 200,0 0,-500 z m 600,600 0,200 200,0 0,-200 z m -400,-400 400,0 0,100 -400,0 z"
       style="color:#000000;fill:#455a64;fill-opacity:1;fill-rule:nonzero;stroke:none;stroke-width:1px;marker:none;visibility:visible;display:inline;overflow:visible;enable-background:accumulate" />
    <path
       sodipodi:nodetypes="ccccccccccccc"
       inkscape:connector-curvature="0"
       id="path6409-9"
       d="m 1100,2200 0,200 300,0 0,400 -300,0 0,200 800,0 0,-200 -300,0 0,-400 300,0 0,-200 z"
       style="color:#000000;fill:#455a64;fill-opacity:1;fill-rule:nonzero;stroke:none;stroke-width:1px;marker:none;visibility:visible;display:inline;overflow:visible;enable-background:accumulate" />
    <path
       sodipodi:nodetypes="cccccccccccccc"
       inkscape:connector-curvature="0"
       id="path6411-0"
       d="m 2200,2200 0,800 600,0 0,-200 -400,0 0,-400 400,0 0,-200 z m 600,200 0,400 200,0 0,-400 z"
       style="color:#000000;fill:#455a64;fill-opacity:1;fill-rule:nonzero;stroke:none;stroke-width:1px;marker:none;visibility:visible;display:inline;overflow:visible;enable-background:accumulate" />
  </g>
</svg>
