<?xml version="1.0" encoding="UTF-8" standalone="no"?>
<!-- Created with Inkscape (http://www.inkscape.org/) -->

<svg
   xmlns:dc="http://purl.org/dc/elements/1.1/"
   xmlns:cc="http://creativecommons.org/ns#"
   xmlns:rdf="http://www.w3.org/1999/02/22-rdf-syntax-ns#"
   xmlns:svg="http://www.w3.org/2000/svg"
   xmlns="http://www.w3.org/2000/svg"
   xmlns:sodipodi="http://sodipodi.sourceforge.net/DTD/sodipodi-0.dtd"
   xmlns:inkscape="http://www.inkscape.org/namespaces/inkscape"
   inkscape:version="0.48.4 r9939"
   version="1.1"
   id="svg2"
   height="1000"
   width="1000"
   sodipodi:docname="hazeorid-logogram.svg"
   inkscape:export-filename="/home/agnium/all/repo/hazeorid/hazeorid-brand/assets/hazeorid-logogram.png"
   inkscape:export-xdpi="75"
   inkscape:export-ydpi="75">
  <sodipodi:namedview
     id="base"
     pagecolor="#ffffff"
     bordercolor="#000000"
     borderopacity="1"
     inkscape:pageopacity="0.0"
     inkscape:pageshadow="2"
     inkscape:zoom="0.23055108"
     inkscape:cx="1246.183"
     inkscape:cy="428.64952"
     inkscape:document-units="px"
     inkscape:current-layer="layer2"
     showgrid="false"
     showborder="true"
     inkscape:showpageshadow="false"
     borderlayer="false"
     objecttolerance="10000"
     guidetolerance="10000"
     inkscape:window-width="1366"
     inkscape:window-height="744"
     inkscape:window-x="0"
     inkscape:window-y="24"
     inkscape:window-maximized="1"
     showguides="true"
     inkscape:snap-bbox="true"
     inkscape:guide-bbox="true"
     inkscape:bbox-nodes="true"
     inkscape:snap-global="true">
    <inkscape:grid
       type="xygrid"
       id="grid3777"
       empspacing="5"
       visible="true"
       enabled="true"
       snapvisiblegridlinesonly="true" />
  </sodipodi:namedview>
  <defs
     id="defs4" />
  <metadata
     id="metadata7">
    <rdf:RDF>
      <cc:Work
         rdf:about="">
        <dc:format>image/svg+xml</dc:format>
        <dc:type
           rdf:resource="http://purl.org/dc/dcmitype/StillImage" />
        <dc:title></dc:title>
      </cc:Work>
    </rdf:RDF>
  </metadata>
  <g
     inkscape:groupmode="layer"
     id="layer2"
     inkscape:label="Color"
     style="display:inline">
    <path
       inkscape:connector-curvature="0"
       id="path3202"
       d="m 1000,2.5e-5 1000,0 0,999.999945 -1000,0 z"
       style="color:#000000;fill:#e3f2fd;fill-opacity:1;fill-rule:nonzero;stroke:none;stroke-width:1px;marker:none;visibility:visible;display:inline;overflow:visible;enable-background:accumulate"
       inkscape:export-filename="/home/mhaidarh/storage/project/hazeorid/id/hazeorid-logo_pop-blue_square.png"
       inkscape:export-xdpi="90"
       inkscape:export-ydpi="90" />
    <path
       style="color:#000000;fill:#1976d2;fill-opacity:1;fill-rule:nonzero;stroke:none;stroke-width:1px;marker:none;visibility:visible;display:inline;overflow:visible;enable-background:accumulate"
       d="m 1200,199.99997 0,200 100,0 0,200 -100,0 0,200 200,0 0,-100 200,0 0,100 200,0 0,-200 -100,0 0,-200 100,0 0,-200 -200,0 0,100 -200,0 0,-100 -200,0 z m 200,200 200,0 0,200 -200,0 0,-200 z"
       id="path4023"
       inkscape:connector-curvature="0"
       inkscape:export-filename="/home/mhaidarh/storage/project/hazeorid/id/hazeorid-logo_plain-blue.png"
       inkscape:export-xdpi="90"
       inkscape:export-ydpi="90" />
    <path
       style="color:#000000;fill:#2196f3;fill-opacity:1;fill-rule:nonzero;stroke:none;stroke-width:20;marker:none;visibility:visible;display:inline;overflow:visible;enable-background:accumulate"
       d="m 1600,399.99997 0,200 200,200 0,-200 -100,0 0,-200 100,0 0,-200 z"
       id="path4025"
       inkscape:connector-curvature="0"
       sodipodi:nodetypes="ccccccccc"
       inkscape:export-filename="/home/mhaidarh/storage/project/hazeorid/id/hazeorid-logo_glass-blue_stroke-black.png"
       inkscape:export-xdpi="90"
       inkscape:export-ydpi="90" />
    <path
       inkscape:export-ydpi="90"
       inkscape:export-xdpi="90"
       inkscape:export-filename="/home/mhaidarh/storage/project/hazeorid/id/hazeorid-logo_glass-blue_stroke-black.png"
       sodipodi:nodetypes="ccccccccc"
       inkscape:connector-curvature="0"
       id="path4027"
       d="m 1600,399.99997 -200,0 -200,-200 200,0 0,100 200,0 0,-100 200,0 z"
       style="color:#000000;fill:#42a5f5;fill-opacity:1;fill-rule:nonzero;stroke:none;stroke-width:20;marker:none;visibility:visible;display:inline;overflow:visible;enable-background:accumulate" />
    <path
       inkscape:export-ydpi="90"
       inkscape:export-xdpi="90"
       inkscape:export-filename="/home/mhaidarh/storage/project/hazeorid/id/hazeorid-logo_glass-blue_stroke-black.png"
       sodipodi:nodetypes="ccccccccc"
       inkscape:connector-curvature="0"
       id="path4029"
       d="m 1400,599.99997 200,0 200,200 -200,0 0,-100 -200,0 0,100 -200,0 z"
       style="color:#000000;fill:#1e88e5;fill-opacity:1;fill-rule:nonzero;stroke:none;stroke-width:20;marker:none;visibility:visible;display:inline;overflow:visible;enable-background:accumulate" />
    <path
       style="color:#000000;fill:#1976d2;fill-opacity:1;fill-rule:nonzero;stroke:none;stroke-width:1px;marker:none;visibility:visible;display:inline;overflow:visible;enable-background:accumulate"
       d="m 0,0 1000,0 0,999.99995 -1000,0 z"
       id="rect9114"
       inkscape:connector-curvature="0" />
    <path
       inkscape:connector-curvature="0"
       id="path4031"
       d="m 500,500 500,499.99995 -1000,0 z"
       style="color:#000000;fill:#1e88e5;fill-opacity:1;fill-rule:nonzero;stroke:none;stroke-width:1px;marker:none;visibility:visible;display:inline;overflow:visible;enable-background:accumulate"
       sodipodi:nodetypes="cccc" />
    <path
       sodipodi:nodetypes="cccc"
       style="color:#000000;fill:#2196f3;fill-opacity:1;fill-rule:nonzero;stroke:none;stroke-width:1px;marker:none;visibility:visible;display:inline;overflow:visible;enable-background:accumulate"
       d="M 500.0001,500 1000,1000 1000,0 z"
       id="path4044"
       inkscape:connector-curvature="0" />
    <path
       sodipodi:nodetypes="cccc"
       style="color:#000000;fill:#42a5f5;fill-opacity:1;fill-rule:nonzero;stroke:none;stroke-width:1px;marker:none;visibility:visible;display:inline;overflow:visible;enable-background:accumulate"
       d="M 500,499.99995 1000,0 0,0 z"
       id="path4046"
       inkscape:connector-curvature="0" />
    <path
       style="color:#000000;fill:#ffffff;fill-opacity:1;fill-rule:nonzero;stroke:none;stroke-width:1px;marker:none;visibility:visible;display:inline;overflow:visible;enable-background:accumulate"
       d="m 200,200 0,200 100,0 0,200.00002 -100,0 0,200 200,0 0,-100 200,0 0,100 200,0 0,-200 -100,0 L 700,400 l 100,0 0,-200 -200,0 0,100 -200,0 0,-100 -200,0 z m 200,200 200,0 0,200.00002 -200,0 L 400,400 z"
       id="rect4279-0-6"
       inkscape:connector-curvature="0"
       inkscape:export-filename="/home/mhaidarh/storage/project/hazeorid/id/hazeorid-logo_plain-blue.png"
       inkscape:export-xdpi="90"
       inkscape:export-ydpi="90" />
    <path
       inkscape:connector-curvature="0"
       id="path3202-8"
       d="m 2000,2.5e-5 1000,0 0,999.999975 -1000,0 z"
       style="color:#000000;fill:#ffffff;fill-opacity:1;fill-rule:nonzero;stroke:none;stroke-width:1px;marker:none;visibility:visible;display:inline;overflow:visible;enable-background:accumulate"
       inkscape:export-filename="/home/mhaidarh/storage/project/hazeorid/id/hazeorid-logo_pop-blue_square.png"
       inkscape:export-xdpi="90"
       inkscape:export-ydpi="90" />
    <path
       style="color:#000000;fill:#1976d2;fill-opacity:1;fill-rule:nonzero;stroke:none;stroke-width:1px;marker:none;visibility:visible;display:inline;overflow:visible;enable-background:accumulate"
       d="m 2200,199.99996 0,200 100,0 0,200 -100,0 0,200 200,0 0,-100 200,0 0,100 200,0 0,-200 -100,0 0,-200 100,0 0,-200 -200,0 0,100 -200,0 0,-100 -200,0 z m 200,200 200,0 0,200 -200,0 0,-200 z"
       id="path4023-4"
       inkscape:connector-curvature="0"
       inkscape:export-filename="/home/mhaidarh/storage/project/hazeorid/id/hazeorid-logo_plain-blue.png"
       inkscape:export-xdpi="90"
       inkscape:export-ydpi="90" />
    <path
       style="color:#000000;fill:#2196f3;fill-opacity:1;fill-rule:nonzero;stroke:none;stroke-width:20;marker:none;visibility:visible;display:inline;overflow:visible;enable-background:accumulate"
       d="m 2600,399.99996 0,200.00001 200,200 0,-200 -100,0 0,-200 100,0 0,-200 z"
       id="path4025-2"
       inkscape:connector-curvature="0"
       sodipodi:nodetypes="ccccccccc"
       inkscape:export-filename="/home/mhaidarh/storage/project/hazeorid/id/hazeorid-logo_glass-blue_stroke-black.png"
       inkscape:export-xdpi="90"
       inkscape:export-ydpi="90" />
    <path
       inkscape:export-ydpi="90"
       inkscape:export-xdpi="90"
       inkscape:export-filename="/home/mhaidarh/storage/project/hazeorid/id/hazeorid-logo_glass-blue_stroke-black.png"
       sodipodi:nodetypes="ccccccccc"
       inkscape:connector-curvature="0"
       id="path4027-6"
       d="m 2600,399.99996 -200,0 -200,-200 200,0 0,100 200,0 0,-100 200,0 z"
       style="color:#000000;fill:#42a5f5;fill-opacity:1;fill-rule:nonzero;stroke:none;stroke-width:20;marker:none;visibility:visible;display:inline;overflow:visible;enable-background:accumulate" />
    <path
       inkscape:export-ydpi="90"
       inkscape:export-xdpi="90"
       inkscape:export-filename="/home/mhaidarh/storage/project/hazeorid/id/hazeorid-logo_glass-blue_stroke-black.png"
       sodipodi:nodetypes="ccccccccc"
       inkscape:connector-curvature="0"
       id="path4029-0"
       d="m 2400,599.99996 200,0 200,200 -200,0 0,-100 -200,0 0,100 -200,0 z"
       style="color:#000000;fill:#1e88e5;fill-opacity:1;fill-rule:nonzero;stroke:none;stroke-width:20;marker:none;visibility:visible;display:inline;overflow:visible;enable-background:accumulate" />
  </g>
</svg>
