<svg xmlns="http://www.w3.org/2000/svg" xmlns:svg="http://www.w3.org/2000/svg" id="svg2" width="700" height="100" version="1.1"><metadata id="metadata12"/><g id="g3081" transform="matrix(0.75,0,0,0.75,-17.500004,-2087.5)"><path style="color:#000;fill:#42a5f5;stroke:none;overflow:visible" id="path4-3" d="m 50.00001,2810 v 26.6667 h 13.33333 v 26.6666 H 50.00001 V 2890 h 26.66667 v -13.3333 h 26.66666 V 2890 h 26.66667 v -26.6667 h -13.33333 v -26.6666 h 13.33333 V 2810 h -26.66667 v 13.3333 H 76.66668 V 2810 H 50.00001 z m 26.66667,26.6667 h 26.66666 v 26.6666 H 76.66668 v -26.6666 z" overflow="visible"><title id="title6-8">logogram</title></path><path style="color:#000;fill:#455a64;fill-opacity:1;fill-rule:nonzero;stroke:none;stroke-width:1px;marker:none;visibility:visible;display:inline;overflow:visible;enable-background:accumulate" id="path6399-0" d="m 150.00001,2810 0,80 20,0 0,-30 40,0 0,30 20,0 0,-80 -20,0 0,30 -40,0 0,-30 z"/><path style="color:#000;fill:#455a64;fill-opacity:1;fill-rule:nonzero;stroke:none;stroke-width:1px;marker:none;visibility:visible;display:inline;overflow:visible;enable-background:accumulate" id="path6401-2" d="m 250.00001,2810 0,80 20,0 0,-30 40,0 0,30 20,0 0,-80 z m 20,20 40,0 0,10 -40,0 z"/><path style="color:#000;fill:#455a64;fill-opacity:1;fill-rule:nonzero;stroke:none;stroke-width:1px;marker:none;visibility:visible;display:inline;overflow:visible;enable-background:accumulate" id="path6413-3" d="m 350.00001,2810 0,20 40,0 0,20 20,0 0,-20 19.99999,0 0,-20 -79.99999,0 z m 40,40 -20,0 0,20 -20,0 0,20 79.99999,0 0,-20 -39.99999,0 0,-20 z"/><path style="color:#000;fill:#455a64;fill-opacity:1;fill-rule:nonzero;stroke:none;stroke-width:1px;marker:none;visibility:visible;display:inline;overflow:visible;enable-background:accumulate" id="path6403-1" d="m 450.00001,2810 0,80 80,0 0,-20 -60,0 0,-10 60,0 0,-20 -60,0 0,-10 60,0 0,-20 z"/><path style="color:#000;fill:#455a64;fill-opacity:1;fill-rule:nonzero;stroke:none;stroke-width:1px;marker:none;visibility:visible;display:inline;overflow:visible;enable-background:accumulate" id="path6405-9" d="m 550.00001,2810 0,80 79.99999,0 0,-80 z m 20,20 40,0 0,40 -40,0 z"/><path style="color:#000;fill:#455a64;fill-opacity:1;fill-rule:nonzero;stroke:none;stroke-width:1px;marker:none;visibility:visible;display:inline;overflow:visible;enable-background:accumulate" id="path6407-9" d="m 650.00001,2810 0,80 20,0 0,-30 20,0 0,10 20,0 0,-10 20,0 0,-50 z m 60,60 0,20 20,0 0,-20 z m -40,-40 40,0 0,10 -40,0 z"/><path style="color:#000;fill:#455a64;fill-opacity:1;fill-rule:nonzero;stroke:none;stroke-width:1px;marker:none;visibility:visible;display:inline;overflow:visible;enable-background:accumulate" id="path6409-9" d="m 750.00001,2810 0,20 30,0 0,40 -30,0 0,20 80,0 0,-20 -30,0 0,-40 30,0 0,-20 z"/><path style="color:#000;fill:#455a64;fill-opacity:1;fill-rule:nonzero;stroke:none;stroke-width:1px;marker:none;visibility:visible;display:inline;overflow:visible;enable-background:accumulate" id="path6411-0" d="m 850.00001,2810 0,80 60,0 0,-20 -40,0 0,-40 40,0 0,-20 z m 60,20 0,40 19.99999,0 0,-40 z"/></g></svg>