<svg xmlns="http://www.w3.org/2000/svg" xmlns:svg="http://www.w3.org/2000/svg" id="svg2" width="300" height="300" version="1.1"><metadata id="metadata12"/><g id="layer1" transform="translate(0,-2700)" style="display:inline"><rect style="fill:#e3f2fd;fill-opacity:1;stroke:none" id="rect4299" width="300" height="300" x="0" y="2700"/></g><g id="layer2" transform="translate(0,-2700)" style="display:inline"><path id="path4" d="m 109.99997,2810 v 26.6667 h 13.33333 v 26.6666 H 109.99997 V 2890 h 26.66667 v -13.3333 H 163.3333 V 2890 h 26.66667 v -26.6667 h -13.33333 v -26.6666 h 13.33333 V 2810 H 163.3333 v 13.3333 H 136.66664 V 2810 h -26.66667 z m 26.66667,26.6667 h 26.66666 v 26.6666 h -26.66666 v -26.6666 z" overflow="visible" style="color:#000;fill:#42a5f5;stroke:none;overflow:visible"><title id="title6">logogram</title></path><g id="g3184" transform="matrix(0.1,0,0,0.1,41.59753,2745.3197)" style="fill:#bbdefb"><path id="rect6428-8" d="m -415.97563,446.80294 3000.00003,0 0,100 -3000.00003,0 z" style="color:#000;fill:#bbdefb;fill-opacity:1;fill-rule:nonzero;stroke:none;stroke-width:1px;marker:none;visibility:visible;display:inline;overflow:visible;enable-background:accumulate"/><path id="rect6428-5-8" d="m -415.97563,1546.8029 3000.00003,0 0,100 -3000.00003,0 z" style="color:#000;fill:#bbdefb;fill-opacity:1;fill-rule:nonzero;stroke:none;stroke-width:1px;marker:none;visibility:visible;display:inline;overflow:visible;enable-background:accumulate"/><path id="rect6428-3-3" d="m 484.02437,2546.8029 0,-2999.99996 100,0 0,2999.99996 z" style="color:#000;fill:#bbdefb;fill-opacity:1;fill-rule:nonzero;stroke:none;stroke-width:1px;marker:none;visibility:visible;display:inline;overflow:visible;enable-background:accumulate"/><path id="rect6428-5-1-5" d="m 1584.0244,2546.8029 0,-2999.99996 100,0 0,2999.99996 z" style="color:#000;fill:#bbdefb;fill-opacity:1;fill-rule:nonzero;stroke:none;stroke-width:1px;marker:none;visibility:visible;display:inline;overflow:visible;enable-background:accumulate"/></g><path id="path6399-0" d="m -3.4e-5,2700 0,80 20,0 0,-30 40,0 0,30 20,0 0,-80 -20,0 0,30 -40,0 0,-30 z" style="color:#000;fill:#455a64;fill-opacity:1;fill-rule:nonzero;stroke:none;stroke-width:1px;marker:none;visibility:visible;display:inline;overflow:visible;enable-background:accumulate"/><path id="path6401-2" d="m 109.99997,2700 0,80 20,0 0,-30 40,0 0,30 20,0 0,-80 z m 20,20 40,0 0,10 -40,0 z" style="color:#000;fill:#455a64;fill-opacity:1;fill-rule:nonzero;stroke:none;stroke-width:1px;marker:none;visibility:visible;display:inline;overflow:visible;enable-background:accumulate"/><path id="path6413-3" d="m 219.99997,2700 0,20 40,0 0,20 20,0 0,-20 19.99999,0 0,-20 -79.99999,0 z m 40,40 -20,0 0,20 -20,0 0,20 79.99999,0 0,-20 -39.99999,0 0,-20 z" style="color:#000;fill:#455a64;fill-opacity:1;fill-rule:nonzero;stroke:none;stroke-width:1px;marker:none;visibility:visible;display:inline;overflow:visible;enable-background:accumulate"/><path id="path6403-1" d="m -3.06e-5,2810 0,80 79.9999986,0 0,-20 -59.999999,0 0,-10 59.999999,0 0,-20 -59.999999,0 0,-10 59.999999,0 0,-20 z" style="color:#000;fill:#455a64;fill-opacity:1;fill-rule:nonzero;stroke:none;stroke-width:1px;marker:none;visibility:visible;display:inline;overflow:visible;enable-background:accumulate"/><path id="path6405-9" d="m 219.99997,2810 0,80 79.99999,0 0,-80 z m 20,20 40,0 0,40 -40,0 z" style="color:#000;fill:#455a64;fill-opacity:1;fill-rule:nonzero;stroke:none;stroke-width:1px;marker:none;visibility:visible;display:inline;overflow:visible;enable-background:accumulate"/><path id="path6407-9" d="m -3.06e-5,2920 0,80 19.9999996,0 0,-30 20,0 0,10 20,0 0,-10 19.999999,0 0,-50 z m 59.9999996,60 0,20 19.999999,0 0,-20 z m -40,-40 40,0 0,10 -40,0 z" style="color:#000;fill:#455a64;fill-opacity:1;fill-rule:nonzero;stroke:none;stroke-width:1px;marker:none;visibility:visible;display:inline;overflow:visible;enable-background:accumulate"/><path id="path6409-9" d="m 109.99997,2920 0,20 30,0 0,40 -30,0 0,20 80,0 0,-20 -30,0 0,-40 30,0 0,-20 z" style="color:#000;fill:#455a64;fill-opacity:1;fill-rule:nonzero;stroke:none;stroke-width:1px;marker:none;visibility:visible;display:inline;overflow:visible;enable-background:accumulate"/><path id="path6411-0" d="m 219.99997,2920 0,80 60,0 0,-20 -40,0 0,-40 40,0 0,-20 z m 60,20 0,40 19.99999,0 0,-40 z" style="color:#000;fill:#455a64;fill-opacity:1;fill-rule:nonzero;stroke:none;stroke-width:1px;marker:none;visibility:visible;display:inline;overflow:visible;enable-background:accumulate"/></g></svg>