<?xml version="1.0" encoding="UTF-8" standalone="no"?>
<svg
   xmlns:dc="http://purl.org/dc/elements/1.1/"
   xmlns:cc="http://creativecommons.org/ns#"
   xmlns:rdf="http://www.w3.org/1999/02/22-rdf-syntax-ns#"
   xmlns:svg="http://www.w3.org/2000/svg"
   xmlns="http://www.w3.org/2000/svg"
   xmlns:sodipodi="http://sodipodi.sourceforge.net/DTD/sodipodi-0.dtd"
   xmlns:inkscape="http://www.inkscape.org/namespaces/inkscape"
   width="700"
   height="100"
   id="svg2"
   version="1.1"
   inkscape:version="0.48.4 r9939"
   sodipodi:docname="hazeorid_logomark_caps.svg"
   inkscape:export-filename="/home/agnium/all/repo/hazeorid/hazeorid-brand/assets/hazeorid_logomark_caps.png"
   inkscape:export-xdpi="90"
   inkscape:export-ydpi="90">
  <metadata
     id="metadata12">
    <rdf:RDF>
      <cc:Work
         rdf:about="">
        <dc:format>image/svg+xml</dc:format>
        <dc:type
           rdf:resource="http://purl.org/dc/dcmitype/StillImage" />
        <dc:title />
      </cc:Work>
    </rdf:RDF>
  </metadata>
  <defs
     id="defs10" />
  <sodipodi:namedview
     pagecolor="#ffffff"
     bordercolor="#666666"
     borderopacity="1"
     objecttolerance="10"
     gridtolerance="10"
     guidetolerance="10"
     inkscape:pageopacity="0"
     inkscape:pageshadow="2"
     inkscape:window-width="1366"
     inkscape:window-height="744"
     id="namedview8"
     showgrid="false"
     inkscape:zoom="0.91688674"
     inkscape:cx="245.99051"
     inkscape:cy="45.767526"
     inkscape:window-x="0"
     inkscape:window-y="24"
     inkscape:window-maximized="1"
     inkscape:current-layer="svg2"
     inkscape:snap-bbox="true"
     inkscape:bbox-paths="true"
     inkscape:bbox-nodes="true"
     inkscape:snap-bbox-edge-midpoints="false"
     inkscape:snap-bbox-midpoints="true"
     inkscape:object-paths="true"
     inkscape:snap-intersection-paths="true"
     inkscape:object-nodes="true"
     inkscape:snap-smooth-nodes="true"
     inkscape:showpageshadow="false" />
  <g
     id="g3081"
     transform="matrix(0.75,0,0,0.75,-17.500004,-2087.5)">
    <path
       inkscape:connector-curvature="0"
       style="color:#000000;fill:#42a5f5;stroke:none;overflow:visible"
       id="path4-3"
       overflow="visible"
       d="m 50.00001,2810 v 26.6667 h 13.33333 v 26.6666 H 50.00001 V 2890 h 26.66667 v -13.3333 h 26.66666 V 2890 h 26.66667 v -26.6667 h -13.33333 v -26.6666 h 13.33333 V 2810 h -26.66667 v 13.3333 H 76.66668 V 2810 H 50.00001 z m 26.66667,26.6667 h 26.66666 v 26.6666 H 76.66668 v -26.6666 z">
      <title
         id="title6-8">logogram</title>
    </path>
    <path
       style="color:#000000;fill:#455a64;fill-opacity:1;fill-rule:nonzero;stroke:none;stroke-width:1px;marker:none;visibility:visible;display:inline;overflow:visible;enable-background:accumulate"
       d="m 150.00001,2810 0,80 20,0 0,-30 40,0 0,30 20,0 0,-80 -20,0 0,30 -40,0 0,-30 z"
       id="path6399-0"
       inkscape:connector-curvature="0"
       sodipodi:nodetypes="ccccccccccccc" />
    <path
       style="color:#000000;fill:#455a64;fill-opacity:1;fill-rule:nonzero;stroke:none;stroke-width:1px;marker:none;visibility:visible;display:inline;overflow:visible;enable-background:accumulate"
       d="m 250.00001,2810 0,80 20,0 0,-30 40,0 0,30 20,0 0,-80 z m 20,20 40,0 0,10 -40,0 z"
       id="path6401-2"
       inkscape:connector-curvature="0"
       sodipodi:nodetypes="cccccccccccccc" />
    <path
       style="color:#000000;fill:#455a64;fill-opacity:1;fill-rule:nonzero;stroke:none;stroke-width:1px;marker:none;visibility:visible;display:inline;overflow:visible;enable-background:accumulate"
       d="m 350.00001,2810 0,20 40,0 0,20 20,0 0,-20 19.99999,0 0,-20 -79.99999,0 z m 40,40 -20,0 0,20 -20,0 0,20 79.99999,0 0,-20 -39.99999,0 0,-20 z"
       id="path6413-3"
       inkscape:connector-curvature="0" />
    <path
       style="color:#000000;fill:#455a64;fill-opacity:1;fill-rule:nonzero;stroke:none;stroke-width:1px;marker:none;visibility:visible;display:inline;overflow:visible;enable-background:accumulate"
       d="m 450.00001,2810 0,80 80,0 0,-20 -60,0 0,-10 60,0 0,-20 -60,0 0,-10 60,0 0,-20 z"
       id="path6403-1"
       inkscape:connector-curvature="0"
       sodipodi:nodetypes="ccccccccccccc" />
    <path
       style="color:#000000;fill:#455a64;fill-opacity:1;fill-rule:nonzero;stroke:none;stroke-width:1px;marker:none;visibility:visible;display:inline;overflow:visible;enable-background:accumulate"
       d="m 550.00001,2810 0,80 79.99999,0 0,-80 z m 20,20 40,0 0,40 -40,0 z"
       id="path6405-9"
       inkscape:connector-curvature="0"
       sodipodi:nodetypes="cccccccccc" />
    <path
       style="color:#000000;fill:#455a64;fill-opacity:1;fill-rule:nonzero;stroke:none;stroke-width:1px;marker:none;visibility:visible;display:inline;overflow:visible;enable-background:accumulate"
       d="m 650.00001,2810 0,80 20,0 0,-30 20,0 0,10 20,0 0,-10 20,0 0,-50 z m 60,60 0,20 20,0 0,-20 z m -40,-40 40,0 0,10 -40,0 z"
       id="path6407-9"
       inkscape:connector-curvature="0"
       sodipodi:nodetypes="ccccccccccccccccccccc" />
    <path
       style="color:#000000;fill:#455a64;fill-opacity:1;fill-rule:nonzero;stroke:none;stroke-width:1px;marker:none;visibility:visible;display:inline;overflow:visible;enable-background:accumulate"
       d="m 750.00001,2810 0,20 30,0 0,40 -30,0 0,20 80,0 0,-20 -30,0 0,-40 30,0 0,-20 z"
       id="path6409-9"
       inkscape:connector-curvature="0"
       sodipodi:nodetypes="ccccccccccccc" />
    <path
       style="color:#000000;fill:#455a64;fill-opacity:1;fill-rule:nonzero;stroke:none;stroke-width:1px;marker:none;visibility:visible;display:inline;overflow:visible;enable-background:accumulate"
       d="m 850.00001,2810 0,80 60,0 0,-20 -40,0 0,-40 40,0 0,-20 z m 60,20 0,40 19.99999,0 0,-40 z"
       id="path6411-0"
       inkscape:connector-curvature="0"
       sodipodi:nodetypes="cccccccccccccc" />
  </g>
</svg>
