<?xml version="1.0" encoding="UTF-8" standalone="no"?>
<svg
   xmlns:dc="http://purl.org/dc/elements/1.1/"
   xmlns:cc="http://creativecommons.org/ns#"
   xmlns:rdf="http://www.w3.org/1999/02/22-rdf-syntax-ns#"
   xmlns:svg="http://www.w3.org/2000/svg"
   xmlns="http://www.w3.org/2000/svg"
   xmlns:sodipodi="http://sodipodi.sourceforge.net/DTD/sodipodi-0.dtd"
   xmlns:inkscape="http://www.inkscape.org/namespaces/inkscape"
   width="300"
   height="300"
   id="svg2"
   version="1.1"
   inkscape:version="0.48.4 r9939"
   sodipodi:docname="hazeorid_logomark_square_on-blank.svg"
   inkscape:export-filename="/home/agnium/all/repo/hazeorid/hazeorid-brand/assets/hazeorid_logomark_square.png"
   inkscape:export-xdpi="90"
   inkscape:export-ydpi="90">
  <metadata
     id="metadata12">
    <rdf:RDF>
      <cc:Work
         rdf:about="">
        <dc:format>image/svg+xml</dc:format>
        <dc:type
           rdf:resource="http://purl.org/dc/dcmitype/StillImage" />
        <dc:title />
      </cc:Work>
    </rdf:RDF>
  </metadata>
  <defs
     id="defs10" />
  <sodipodi:namedview
     pagecolor="#ffffff"
     bordercolor="#666666"
     borderopacity="1"
     objecttolerance="10"
     gridtolerance="10"
     guidetolerance="10"
     inkscape:pageopacity="0"
     inkscape:pageshadow="2"
     inkscape:window-width="1366"
     inkscape:window-height="744"
     id="namedview8"
     showgrid="false"
     inkscape:zoom="0.75775762"
     inkscape:cx="338.47471"
     inkscape:cy="40.178354"
     inkscape:window-x="0"
     inkscape:window-y="24"
     inkscape:window-maximized="1"
     inkscape:current-layer="layer2"
     inkscape:snap-bbox="true"
     inkscape:bbox-paths="true"
     inkscape:bbox-nodes="true"
     inkscape:snap-bbox-edge-midpoints="false"
     inkscape:snap-bbox-midpoints="true"
     inkscape:object-paths="true"
     inkscape:snap-intersection-paths="true"
     inkscape:object-nodes="true"
     inkscape:snap-smooth-nodes="true"
     inkscape:showpageshadow="false"
     inkscape:snap-global="true" />
  <g
     inkscape:groupmode="layer"
     id="layer2"
     inkscape:label="design"
     style="display:inline"
     transform="translate(0,-2700)">
    <path
       d="m 109.99997,2810 v 26.6667 h 13.33333 v 26.6666 H 109.99997 V 2890 h 26.66667 v -13.3333 H 163.3333 V 2890 h 26.66667 v -26.6667 h -13.33333 v -26.6666 h 13.33333 V 2810 H 163.3333 v 13.3333 H 136.66664 V 2810 h -26.66667 z m 26.66667,26.6667 h 26.66666 v 26.6666 h -26.66666 v -26.6666 z"
       overflow="visible"
       id="path4"
       style="color:#000000;fill:#42a5f5;stroke:none;overflow:visible"
       inkscape:connector-curvature="0">
      <title
         id="title6">logogram</title>
    </path>
    <path
       sodipodi:nodetypes="ccccccccccccc"
       inkscape:connector-curvature="0"
       id="path6399-0"
       d="m -3.4e-5,2700 0,80 20,0 0,-30 40,0 0,30 20,0 0,-80 -20,0 0,30 -40,0 0,-30 z"
       style="color:#000000;fill:#455a64;fill-opacity:1;fill-rule:nonzero;stroke:none;stroke-width:1px;marker:none;visibility:visible;display:inline;overflow:visible;enable-background:accumulate" />
    <path
       sodipodi:nodetypes="cccccccccccccc"
       inkscape:connector-curvature="0"
       id="path6401-2"
       d="m 109.99997,2700 0,80 20,0 0,-30 40,0 0,30 20,0 0,-80 z m 20,20 40,0 0,10 -40,0 z"
       style="color:#000000;fill:#455a64;fill-opacity:1;fill-rule:nonzero;stroke:none;stroke-width:1px;marker:none;visibility:visible;display:inline;overflow:visible;enable-background:accumulate" />
    <path
       inkscape:connector-curvature="0"
       id="path6413-3"
       d="m 219.99997,2700 0,20 40,0 0,20 20,0 0,-20 20,0 0,-20 -80,0 z m 40,40 -20,0 0,20 -20,0 0,20 80,0 0,-20 -40,0 0,-20 z"
       style="color:#000000;fill:#455a64;fill-opacity:1;fill-rule:nonzero;stroke:none;stroke-width:1px;marker:none;visibility:visible;display:inline;overflow:visible;enable-background:accumulate" />
    <path
       sodipodi:nodetypes="ccccccccccccc"
       inkscape:connector-curvature="0"
       id="path6403-1"
       d="m -3.06e-5,2810 0,80 79.9999986,0 0,-20 -59.999999,0 0,-10 59.999999,0 0,-20 -59.999999,0 0,-10 59.999999,0 0,-20 z"
       style="color:#000000;fill:#455a64;fill-opacity:1;fill-rule:nonzero;stroke:none;stroke-width:1px;marker:none;visibility:visible;display:inline;overflow:visible;enable-background:accumulate" />
    <path
       sodipodi:nodetypes="cccccccccc"
       inkscape:connector-curvature="0"
       id="path6405-9"
       d="m 219.99997,2810 0,80 80,0 0,-80 z m 20,20 40,0 0,40 -40,0 z"
       style="color:#000000;fill:#455a64;fill-opacity:1;fill-rule:nonzero;stroke:none;stroke-width:1px;marker:none;visibility:visible;display:inline;overflow:visible;enable-background:accumulate" />
    <path
       sodipodi:nodetypes="ccccccccccccccccccccc"
       inkscape:connector-curvature="0"
       id="path6407-9"
       d="m -3.06e-5,2920 0,80 19.9999996,0 0,-30 20,0 0,10 20,0 0,-10 19.999999,0 0,-50 z m 59.9999996,60 0,20 19.999999,0 0,-20 z m -40,-40 40,0 0,10 -40,0 z"
       style="color:#000000;fill:#455a64;fill-opacity:1;fill-rule:nonzero;stroke:none;stroke-width:1px;marker:none;visibility:visible;display:inline;overflow:visible;enable-background:accumulate" />
    <path
       sodipodi:nodetypes="ccccccccccccc"
       inkscape:connector-curvature="0"
       id="path6409-9"
       d="m 109.99997,2920 0,20 30,0 0,40 -30,0 0,20 80,0 0,-20 -30,0 0,-40 30,0 0,-20 z"
       style="color:#000000;fill:#455a64;fill-opacity:1;fill-rule:nonzero;stroke:none;stroke-width:1px;marker:none;visibility:visible;display:inline;overflow:visible;enable-background:accumulate" />
    <path
       sodipodi:nodetypes="cccccccccccccc"
       inkscape:connector-curvature="0"
       id="path6411-0"
       d="m 219.99997,2920 0,80 60,0 0,-20 -40,0 0,-40 40,0 0,-20 z m 60,20 0,40 20,0 0,-40 z"
       style="color:#000000;fill:#455a64;fill-opacity:1;fill-rule:nonzero;stroke:none;stroke-width:1px;marker:none;visibility:visible;display:inline;overflow:visible;enable-background:accumulate" />
  </g>
</svg>
