<?xml version="1.0" encoding="UTF-8" standalone="no"?>
<svg
   xmlns:dc="http://purl.org/dc/elements/1.1/"
   xmlns:cc="http://creativecommons.org/ns#"
   xmlns:rdf="http://www.w3.org/1999/02/22-rdf-syntax-ns#"
   xmlns:svg="http://www.w3.org/2000/svg"
   xmlns="http://www.w3.org/2000/svg"
   xmlns:sodipodi="http://sodipodi.sourceforge.net/DTD/sodipodi-0.dtd"
   xmlns:inkscape="http://www.inkscape.org/namespaces/inkscape"
   width="470"
   height="100"
   id="svg2"
   version="1.1"
   inkscape:version="0.48.4 r9939"
   sodipodi:docname="hazeorid_logomark.svg"
   inkscape:export-filename="/home/agnium/all/repo/hazeorid/hazeorid-brand/assets/hazeorid_logomark.png"
   inkscape:export-xdpi="90"
   inkscape:export-ydpi="90">
  <metadata
     id="metadata12">
    <rdf:RDF>
      <cc:Work
         rdf:about="">
        <dc:format>image/svg+xml</dc:format>
        <dc:type
           rdf:resource="http://purl.org/dc/dcmitype/StillImage" />
        <dc:title />
      </cc:Work>
    </rdf:RDF>
  </metadata>
  <defs
     id="defs10" />
  <sodipodi:namedview
     pagecolor="#ffffff"
     bordercolor="#666666"
     borderopacity="1"
     objecttolerance="10"
     gridtolerance="10"
     guidetolerance="10"
     inkscape:pageopacity="0"
     inkscape:pageshadow="2"
     inkscape:window-width="1366"
     inkscape:window-height="744"
     id="namedview8"
     showgrid="false"
     inkscape:zoom="1.109433"
     inkscape:cx="217.05599"
     inkscape:cy="101.19011"
     inkscape:window-x="0"
     inkscape:window-y="24"
     inkscape:window-maximized="1"
     inkscape:current-layer="svg2"
     inkscape:snap-bbox="true"
     inkscape:bbox-paths="true"
     inkscape:bbox-nodes="true"
     inkscape:snap-bbox-edge-midpoints="false"
     inkscape:snap-bbox-midpoints="true"
     inkscape:object-paths="true"
     inkscape:snap-intersection-paths="true"
     inkscape:object-nodes="true"
     inkscape:snap-smooth-nodes="true"
     inkscape:showpageshadow="false" />
  <g
     id="g3016"
     transform="translate(-130,-50)">
    <path
       inkscape:connector-curvature="0"
       style="color:#000000;fill:#42a5f5;stroke:none;overflow:visible"
       id="path4"
       overflow="visible"
       d="m 150,70 v 20 h 10 v 20 h -10 v 20 h 20 v -10 h 20 v 10 h 20 V 110 H 200 V 90 h 10 V 70 H 190 V 80 H 170 V 70 h -20 z m 20,20 h 20 v 20 H 170 V 90 z">
      <title
         id="title6">logogram</title>
    </path>
    <g
       style="fill:#37474f"
       id="g3006">
      <path
         style="fill:#37474f;fill-opacity:1;stroke:none"
         d="m 220,70 0,20 0,10 0,30 10,0 0,-30 20,0 0,30 10,0 0,-30 0,-10 -30,0 0,-20 -10,0 z"
         id="rect2989-7"
         inkscape:connector-curvature="0" />
      <path
         style="fill:#37474f;fill-opacity:1;stroke:none"
         d="m 270,90 0,10 30,0 0,5 -30,0 0,10 0,15 10,0 30,0 0,-10 0,-20 0,-10 -40,0 z m 10,25 20,0 0,5 -20,0 0,-5 z"
         id="rect2989-1-8-9"
         inkscape:connector-curvature="0" />
      <path
         style="fill:#37474f;fill-opacity:1;stroke:none"
         d="m 320,90 0,10 20,0 0,10 10,0 0,-10 10,0 0,-10 -40,0 z m 20,20 -10,0 0,10 -10,0 0,10 40,0 0,-10 -20,0 0,-10 z"
         id="rect2989-1-8-55-7"
         inkscape:connector-curvature="0" />
      <path
         style="fill:#37474f;fill-opacity:1;stroke:none"
         d="m 370,90 0,10 0,5 0,10 0,5 0,10 40,0 0,-10 -30,0 0,-5 30,0 0,-10 0,-15 -30,0 -10,0 z m 10,10 20,0 0,5 -20,0 0,-5 z"
         id="rect2989-1-8-2-2"
         inkscape:connector-curvature="0" />
      <path
         style="fill:#37474f;fill-opacity:1;stroke:none"
         d="m 420,90 0,10 0,20 0,10 10,0 30,0 0,-10 0,-20 0,-10 -40,0 z m 10,10 20,0 0,20 -20,0 0,-20 z"
         id="rect2989-85-9"
         inkscape:connector-curvature="0" />
      <path
         style="fill:#37474f;fill-opacity:1;stroke:none"
         d="m 470,90 0,10 0,30 10,0 0,-30 30,0 0,-10 -30,0 -10,0 z"
         id="rect2989-1-8-20-9"
         inkscape:connector-curvature="0" />
      <path
         style="fill:#37474f;fill-opacity:1;stroke:none"
         d="m 520,70 0,10 10,0 0,-10 -10,0 z m 0,20 0,40 10,0 0,-40 -10,0 z"
         id="rect4129-2"
         inkscape:connector-curvature="0" />
      <path
         style="fill:#37474f;fill-opacity:1;stroke:none"
         d="m 570,70 0,20 -30,0 0,10 0,20 0,10 10,0 30,0 0,-10 0,-50 -10,0 z m -20,30 20,0 0,20 -20,0 0,-20 z"
         id="rect2989-2-5"
         inkscape:connector-curvature="0" />
    </g>
  </g>
</svg>
