<svg xmlns="http://www.w3.org/2000/svg" xmlns:svg="http://www.w3.org/2000/svg" id="svg2" width="300" height="100" version="1.1"><metadata id="metadata7"/><g id="layer2" transform="translate(0,-900)" style="display:inline"><path id="path3202" d="m 100,900 100,0 0,100 -100,0 z" style="color:#000;fill:#e3f2fd;fill-opacity:1;fill-rule:nonzero;stroke:none;stroke-width:1px;marker:none;visibility:visible;display:inline;overflow:visible;enable-background:accumulate"/><path style="color:#000;fill:#42a5f5;fill-opacity:1;fill-rule:nonzero;stroke:none;stroke-width:1px;marker:none;visibility:visible;display:inline;overflow:visible;enable-background:accumulate" id="path4023" d="m 120,920 0,20 10,0 0,20 -10,0 0,20 20,0 0,-10 20,0 0,10 20,0 0,-20 -10,0 0,-20 10,0 0,-20 -20,0 0,10 -20,0 0,-10 -20,0 z m 20,20 20,0 0,20 -20,0 0,-20 z"/><path style="color:#000;fill:#42a5f5;fill-opacity:1;fill-rule:nonzero;stroke:none;stroke-width:1px;marker:none;visibility:visible;display:inline;overflow:visible;enable-background:accumulate" id="rect9114" d="m 0,900 100,0 0,100 -100,0 z"/><path style="color:#000;fill:#fff;fill-opacity:1;fill-rule:nonzero;stroke:none;stroke-width:1px;marker:none;visibility:visible;display:inline;overflow:visible;enable-background:accumulate" id="rect4279-0-6" d="m 20,920 0,20 10,0 0,20 -10,0 0,20 20,0 0,-10 20,0 0,10 20,0 0,-20 -10,0 0,-20 10,0 0,-20 -20,0 0,10 -20,0 0,-10 -20,0 z m 20,20 20,0 0,20 -20,0 0,-20 z"/><path id="path3202-8" d="m 200,900 100,0 0,100 -100,0 z" style="color:#000;fill:#fff;fill-opacity:1;fill-rule:nonzero;stroke:none;stroke-width:1px;marker:none;visibility:visible;display:inline;overflow:visible;enable-background:accumulate"/><path style="color:#000;fill:#42a5f5;fill-opacity:1;fill-rule:nonzero;stroke:none;stroke-width:1px;marker:none;visibility:visible;display:inline;overflow:visible;enable-background:accumulate" id="path4023-4" d="m 220,920 0,20 10,0 0,20 -10,0 0,20 20,0 0,-10 20,0 0,10 20,0 0,-20 -10,0 0,-20 10,0 0,-20 -20,0 0,10 -20,0 0,-10 -20,0 z m 20,20 20,0 0,20 -20,0 0,-20 z"/></g></svg>