<svg xmlns="http://www.w3.org/2000/svg" xmlns:svg="http://www.w3.org/2000/svg" id="svg2" width="70" height="70" version="1.1"><metadata id="metadata7"/><g id="layer2" transform="translate(0,-930)" style="display:inline"><g id="g3002" transform="translate(-15,15)"><path id="path4023-4-6" d="m 15,915 0,30 10,0 0,10 -10,0 0,30 30,0 0,-10 10,0 0,10 30,0 0,-30 -10,0 0,-10 10,0 0,-30 -30,0 0,10 -10,0 0,-10 z m 30,30 10,0 0,10 -10,0 z" style="color:#000;fill:#fff;fill-opacity:1;fill-rule:nonzero;stroke:none;stroke-width:1px;marker:none;visibility:visible;display:inline;overflow:visible;enable-background:accumulate"/></g><path style="color:#000;fill:#42a5f5;fill-opacity:1;fill-rule:nonzero;stroke:none;stroke-width:1px;marker:none;visibility:visible;display:inline;overflow:visible;enable-background:accumulate" id="path4023-4" d="m 5,935 0,20 10,0 0,20 -10,0 0,20 20,0 0,-10 20,0 0,10 20,0 0,-20 -10,0 0,-20 10,0 0,-20 -20,0 0,10 -20,0 0,-10 -20,0 z m 20,20 20,0 0,20 -20,0 0,-20 z"/></g></svg>